<svg xmlns="http://www.w3.org/2000/svg" xmlns:xlink="http://www.w3.org/1999/xlink" width="397.197" height="310.431" viewBox="0 0 397.197 310.431">
  <defs>
    <style>
      .cls-1, .cls-17, .cls-43 {
        fill: none;
      }

      .cls-2 {
        fill: #ff6066;
      }

      .cls-3, .cls-39 {
        fill: #fff;
      }

      .cls-4 {
        fill: #ffe340;
      }

      .cls-5 {
        fill: #2d2d2c;
      }

      .cls-6 {
        clip-path: url(#clip-path);
      }

      .cls-7 {
        clip-path: url(#clip-path-2);
      }

      .cls-8 {
        clip-path: url(#clip-path-3);
      }

      .cls-9 {
        fill: #3a4c9f;
      }

      .cls-10 {
        fill: #273b82;
      }

      .cls-11 {
        fill: #b8d5ff;
      }

      .cls-12 {
        fill: #d1d2d4;
      }

      .cls-13 {
        opacity: 0.15;
      }

      .cls-14 {
        opacity: 0.26;
      }

      .cls-15 {
        opacity: 0.62;
      }

      .cls-16 {
        fill: #9cc9ff;
      }

      .cls-17, .cls-43 {
        stroke: #fff;
      }

      .cls-17 {
        stroke-linecap: round;
        stroke-linejoin: round;
        stroke-width: 1.055px;
      }

      .cls-18 {
        fill: #568bff;
      }

      .cls-19 {
        fill: #d1d3d4;
        opacity: 0.63;
      }

      .cls-20 {
        fill: #171587;
      }

      .cls-21 {
        fill: #ffe1bd;
      }

      .cls-22 {
        fill: #08085e;
      }

      .cls-23 {
        fill: #492107;
      }

      .cls-24 {
        fill: #201d93;
      }

      .cls-25 {
        fill: #c46600;
      }

      .cls-26 {
        fill: #db7700;
      }

      .cls-27 {
        fill: #e8c5a0;
      }

      .cls-28 {
        fill: #b3c5ce;
      }

      .cls-29 {
        fill: #e8f1f8;
      }

      .cls-30 {
        fill: #474747;
        opacity: 0.24;
      }

      .cls-31 {
        fill: #d4dedf;
      }

      .cls-32 {
        fill: #632f00;
      }

      .cls-33 {
        fill: #4c2e1e;
      }

      .cls-34 {
        fill: #8c4200;
      }

      .cls-35 {
        fill: #282c3b;
      }

      .cls-36 {
        fill: #2d24a3;
      }

      .cls-37 {
        fill: #b4bcc5;
      }

      .cls-38 {
        fill: #2672e7;
      }

      .cls-39 {
        font-size: 9.198px;
        font-family: OpenSans-Bold, Open Sans;
        font-weight: 700;
      }

      .cls-40 {
        fill: #fc9;
      }

      .cls-41 {
        fill: #3838d6;
      }

      .cls-42 {
        opacity: 0.38;
      }

      .cls-43 {
        stroke-miterlimit: 10;
        stroke-width: 0.906px;
      }
    </style>
    <clipPath id="clip-path">
      <path id="Path_16" data-name="Path 16" class="cls-1" d="M428.345,189.737a5.751,5.751,0,1,1-11.5,0Z"/>
    </clipPath>
    <clipPath id="clip-path-2">
      <path id="Path_22" data-name="Path 22" class="cls-1" d="M643.119,297.918a7.526,7.526,0,1,1-15.051,0Z"/>
    </clipPath>
    <clipPath id="clip-path-3">
      <path id="Path_26" data-name="Path 26" class="cls-1" d="M571.767,112.766a6.921,6.921,0,0,1-13.842,0Z"/>
    </clipPath>
  </defs>
  <g id="Group_126" data-name="Group 126" transform="translate(-258.629 -90.848)">
    <g id="Group_125" data-name="Group 125" transform="translate(-2)">
      <g id="Group_101" data-name="Group 101">
        <g id="Group_4" data-name="Group 4">
          <path id="Path_9" data-name="Path 9" class="cls-2" d="M529.984,102.674a11.612,11.612,0,1,1-11.612-11.612A11.612,11.612,0,0,1,529.984,102.674Z"/>
          <path id="Path_10" data-name="Path 10" class="cls-3" d="M525.715,101.116c-.007,4.531-7.343,8.2-7.343,8.2s-7.317-3.674-7.343-8.2c-.031-5.783,7.545-4.274,7.612-1.676C518.574,96.842,525.723,95.7,525.715,101.116Z"/>
        </g>
        <g id="Group_5" data-name="Group 5">
          <circle id="Ellipse_1" data-name="Ellipse 1" class="cls-2" cx="10.638" cy="10.638" r="10.638" transform="translate(582.729 380.004)"/>
          <path id="Path_11" data-name="Path 11" class="cls-3" d="M600.095,389.215c-.007,4.15-6.728,7.515-6.728,7.515s-6.7-3.365-6.726-7.515c-.03-5.3,6.912-3.916,6.972-1.536C593.553,385.3,600.1,384.25,600.095,389.215Z"/>
        </g>
        <g id="Group_6" data-name="Group 6">
          <path id="Path_12" data-name="Path 12" class="cls-2" d="M653.785,238.217a7.078,7.078,0,1,1-7.079-7.079A7.078,7.078,0,0,1,653.785,238.217Z"/>
          <path id="Path_13" data-name="Path 13" class="cls-3" d="M651.183,237.268c0,2.762-4.477,5-4.477,5s-4.461-2.24-4.476-5c-.019-3.527,4.6-2.606,4.64-1.023C646.83,234.662,651.187,233.964,651.183,237.268Z"/>
        </g>
        <g id="Group_12" data-name="Group 12">
          <circle id="Ellipse_2" data-name="Ellipse 2" class="cls-4" cx="7.719" cy="7.719" r="7.719" transform="matrix(0.624, -0.782, 0.782, 0.624, 411.745, 190.956)"/>
          <path id="Path_14" data-name="Path 14" class="cls-5" d="M428.345,189.737a5.751,5.751,0,1,1-11.5,0Z"/>
          <g id="Group_8" data-name="Group 8">
            <g id="Group_7" data-name="Group 7" class="cls-6">
              <path id="Path_15" data-name="Path 15" class="cls-2" d="M426.476,195.542c0,1.488-1.739,2.694-3.883,2.694s-3.882-1.206-3.882-2.694,1.738-2.694,3.882-2.694S426.476,194.054,426.476,195.542Z"/>
            </g>
          </g>
          <g id="Group_11" data-name="Group 11">
            <g id="Group_9" data-name="Group 9">
              <path id="Path_17" data-name="Path 17" class="cls-5" d="M417.866,188.4a.266.266,0,0,1-.064-.524l1.717-.429-1.608-.987a.266.266,0,1,1,.278-.453l2.146,1.319a.265.265,0,0,1,.124.266.268.268,0,0,1-.2.218l-2.33.582A.29.29,0,0,1,417.866,188.4Z"/>
            </g>
            <g id="Group_10" data-name="Group 10">
              <path id="Path_18" data-name="Path 18" class="cls-5" d="M427.32,188.4a.281.281,0,0,1-.064-.008l-2.33-.582a.268.268,0,0,1-.2-.218.264.264,0,0,1,.125-.266L427,186.01a.266.266,0,0,1,.278.453l-1.607.987,1.716.429a.266.266,0,0,1-.064.524Z"/>
            </g>
          </g>
        </g>
        <g id="Group_18" data-name="Group 18">
          <path id="Path_19" data-name="Path 19" class="cls-4" d="M645.693,297.918a10.1,10.1,0,1,1-10.1-10.1A10.1,10.1,0,0,1,645.693,297.918Z"/>
          <path id="Path_20" data-name="Path 20" class="cls-5" d="M643.119,297.918a7.526,7.526,0,1,1-15.051,0Z"/>
          <g id="Group_14" data-name="Group 14">
            <g id="Group_13" data-name="Group 13" class="cls-7">
              <path id="Path_21" data-name="Path 21" class="cls-2" d="M640.674,305.514c0,1.947-2.275,3.525-5.08,3.525s-5.08-1.578-5.08-3.525,2.274-3.525,5.08-3.525S640.674,303.567,640.674,305.514Z"/>
            </g>
          </g>
          <g id="Group_17" data-name="Group 17">
            <g id="Group_15" data-name="Group 15">
              <path id="Path_23" data-name="Path 23" class="cls-5" d="M629.408,296.172a.348.348,0,0,1-.084-.685l2.246-.561-2.1-1.292a.347.347,0,1,1,.364-.592l2.809,1.725a.347.347,0,0,1-.1.632l-3.048.763A.351.351,0,0,1,629.408,296.172Z"/>
            </g>
            <g id="Group_16" data-name="Group 16">
              <path id="Path_24" data-name="Path 24" class="cls-5" d="M641.779,296.172a.358.358,0,0,1-.085-.01l-3.048-.763a.346.346,0,0,1-.1-.632l2.807-1.725a.348.348,0,1,1,.365.592l-2.1,1.292,2.246.561a.348.348,0,0,1-.084.685Z"/>
            </g>
          </g>
        </g>
        <g id="Group_24" data-name="Group 24">
          <circle id="Ellipse_3" data-name="Ellipse 3" class="cls-4" cx="9.288" cy="9.288" r="9.288" transform="translate(555.558 103.478)"/>
          <path id="Path_25" data-name="Path 25" class="cls-5" d="M571.767,112.766a6.921,6.921,0,0,1-13.842,0Z"/>
          <g id="Group_20" data-name="Group 20">
            <g id="Group_19" data-name="Group 19" class="cls-8">
              <ellipse id="Ellipse_4" data-name="Ellipse 4" class="cls-2" cx="4.672" cy="3.242" rx="4.672" ry="3.242" transform="translate(560.174 116.509)"/>
            </g>
          </g>
          <g id="Group_23" data-name="Group 23">
            <g id="Group_21" data-name="Group 21">
              <path id="Path_27" data-name="Path 27" class="cls-5" d="M559.158,111.16a.32.32,0,0,1-.077-.63l2.064-.516-1.933-1.188a.32.32,0,1,1,.335-.545l2.582,1.586a.32.32,0,0,1-.09.582l-2.8.7A.285.285,0,0,1,559.158,111.16Z"/>
            </g>
            <g id="Group_22" data-name="Group 22">
              <path id="Path_28" data-name="Path 28" class="cls-5" d="M570.534,111.16a.3.3,0,0,1-.078-.01l-2.8-.7a.319.319,0,0,1-.091-.582l2.582-1.586a.32.32,0,1,1,.335.545l-1.933,1.188,2.065.516a.32.32,0,0,1-.077.63Z"/>
            </g>
          </g>
        </g>
        <g id="Group_90" data-name="Group 90">
          <g id="Group_25" data-name="Group 25">
            <path id="Rectangle_4" data-name="Rectangle 4" class="cls-9" d="M19.72,0h89.307a19.721,19.721,0,0,1,19.721,19.721V211.246a19.721,19.721,0,0,1-19.721,19.721H19.721A19.721,19.721,0,0,1,0,211.246V19.72A19.72,19.72,0,0,1,19.72,0Z" transform="translate(614.715 364.761) rotate(180)"/>
            <rect id="Rectangle_5" data-name="Rectangle 5" class="cls-3" width="117.997" height="180.285" transform="translate(609.34 339.42) rotate(180)"/>
            <path id="Path_29" data-name="Path 29" class="cls-10" d="M531.821,147.6h0a1.612,1.612,0,0,1,1.612-1.611H567.25a1.61,1.61,0,0,1,1.61,1.611h0a1.61,1.61,0,0,1-1.61,1.611H533.433A1.612,1.612,0,0,1,531.821,147.6Z"/>
            <path id="Path_30" data-name="Path 30" class="cls-10" d="M550.341,358.279a7.115,7.115,0,1,1,7.115-7.115A7.114,7.114,0,0,1,550.341,358.279Z"/>
          </g>
          <rect id="Rectangle_6" data-name="Rectangle 6" class="cls-11" width="117.997" height="126.074" transform="translate(491.343 203.126)"/>
          <rect id="Rectangle_7" data-name="Rectangle 7" class="cls-12" width="58.184" height="4.445" transform="translate(521.598 175.478)"/>
          <rect id="Rectangle_8" data-name="Rectangle 8" class="cls-12" width="33.549" height="3.22" transform="translate(521.598 183.473)"/>
          <path id="Path_31" data-name="Path 31" class="cls-12" d="M515.981,180.286a9.22,9.22,0,1,1-9.22-9.221A9.22,9.22,0,0,1,515.981,180.286Z"/>
          <path id="Path_32" data-name="Path 32" class="cls-12" d="M593.367,177.423a1.488,1.488,0,1,1-1.488-1.488A1.488,1.488,0,0,1,593.367,177.423Zm3.4-1.488a1.489,1.489,0,1,0,1.489,1.488A1.489,1.489,0,0,0,596.766,175.935Zm4.887,0a1.489,1.489,0,1,0,1.489,1.488A1.488,1.488,0,0,0,601.653,175.935Z"/>
          <g id="Group_89" data-name="Group 89">
            <g id="Group_28" data-name="Group 28">
              <g id="Group_27" data-name="Group 27">
                <g id="Group_26" data-name="Group 26">
                  <rect id="Rectangle_9" data-name="Rectangle 9" class="cls-2" width="8.208" height="20.607" transform="translate(507.472 261.656)"/>
                </g>
              </g>
            </g>
            <g id="Group_31" data-name="Group 31">
              <g id="Group_30" data-name="Group 30">
                <g id="Group_29" data-name="Group 29">
                  <rect id="Rectangle_10" data-name="Rectangle 10" class="cls-9" width="8.209" height="38.698" transform="translate(525.968 243.566)"/>
                </g>
              </g>
            </g>
            <g id="Group_34" data-name="Group 34">
              <g id="Group_33" data-name="Group 33">
                <g id="Group_32" data-name="Group 32">
                  <rect id="Rectangle_11" data-name="Rectangle 11" class="cls-2" width="8.209" height="34.696" transform="translate(544.465 247.567)"/>
                </g>
              </g>
            </g>
            <g id="Group_37" data-name="Group 37">
              <g id="Group_36" data-name="Group 36">
                <g id="Group_35" data-name="Group 35">
                  <rect id="Rectangle_12" data-name="Rectangle 12" class="cls-9" width="8.209" height="48.098" transform="translate(562.962 234.165)"/>
                </g>
              </g>
            </g>
            <g id="Group_40" data-name="Group 40" class="cls-13">
              <g id="Group_39" data-name="Group 39">
                <g id="Group_38" data-name="Group 38">
                  <rect id="Rectangle_13" data-name="Rectangle 13" class="cls-14" width="3.768" height="38.698" transform="translate(525.968 243.566)"/>
                </g>
              </g>
            </g>
            <g id="Group_43" data-name="Group 43" class="cls-13">
              <g id="Group_42" data-name="Group 42">
                <g id="Group_41" data-name="Group 41">
                  <rect id="Rectangle_14" data-name="Rectangle 14" class="cls-14" width="3.767" height="20.607" transform="translate(507.472 261.656)"/>
                </g>
              </g>
            </g>
            <g id="Group_46" data-name="Group 46" class="cls-15">
              <g id="Group_45" data-name="Group 45">
                <g id="Group_44" data-name="Group 44">
                  <rect id="Rectangle_15" data-name="Rectangle 15" class="cls-14" width="3.768" height="48.098" transform="translate(562.962 234.165)"/>
                </g>
              </g>
            </g>
            <g id="Group_49" data-name="Group 49" class="cls-13">
              <g id="Group_48" data-name="Group 48">
                <g id="Group_47" data-name="Group 47">
                  <rect id="Rectangle_16" data-name="Rectangle 16" class="cls-14" width="3.768" height="34.696" transform="translate(544.465 247.567)"/>
                </g>
              </g>
            </g>
            <g id="Group_52" data-name="Group 52">
              <g id="Group_51" data-name="Group 51">
                <g id="Group_50" data-name="Group 50">
                  <rect id="Rectangle_17" data-name="Rectangle 17" class="cls-2" width="8.208" height="58.176" transform="translate(582.434 224.088)"/>
                </g>
              </g>
            </g>
            <g id="Group_55" data-name="Group 55" class="cls-13">
              <g id="Group_54" data-name="Group 54">
                <g id="Group_53" data-name="Group 53">
                  <rect id="Rectangle_18" data-name="Rectangle 18" class="cls-14" width="3.768" height="58.176" transform="translate(582.434 224.088)"/>
                </g>
              </g>
            </g>
            <g id="Group_58" data-name="Group 58">
              <g id="Group_57" data-name="Group 57">
                <g id="Group_56" data-name="Group 56">
                  <path id="Path_33" data-name="Path 33" class="cls-3" d="M596.316,288.928h-95.96V210.7h1.121v77.1h94.839Z"/>
                </g>
              </g>
            </g>
            <g id="Group_61" data-name="Group 61">
              <g id="Group_60" data-name="Group 60">
                <g id="Group_59" data-name="Group 59">
                  <path id="Path_34" data-name="Path 34" class="cls-3" d="M585.619,220.577l-2.65-7.048,7.139,1.338Z"/>
                </g>
              </g>
            </g>
            <g id="Group_75" data-name="Group 75">
              <g id="Group_65" data-name="Group 65">
                <g id="Group_64" data-name="Group 64">
                  <g id="Group_63" data-name="Group 63">
                    <g id="Group_62" data-name="Group 62">
                      <rect id="Rectangle_19" data-name="Rectangle 19" class="cls-9" width="6.889" height="6.889" transform="translate(500.149 297.918)"/>
                    </g>
                  </g>
                </g>
              </g>
              <g id="Group_68" data-name="Group 68">
                <g id="Group_67" data-name="Group 67">
                  <g id="Group_66" data-name="Group 66">
                    <rect id="Rectangle_20" data-name="Rectangle 20" class="cls-2" width="6.889" height="6.889" transform="translate(500.149 309.988)"/>
                  </g>
                </g>
              </g>
              <g id="Group_71" data-name="Group 71">
                <g id="Group_70" data-name="Group 70">
                  <g id="Group_69" data-name="Group 69">
                    <rect id="Rectangle_21" data-name="Rectangle 21" class="cls-16" width="35.719" height="3.915" transform="translate(508.936 312.962)"/>
                  </g>
                </g>
              </g>
              <g id="Group_74" data-name="Group 74">
                <g id="Group_73" data-name="Group 73">
                  <g id="Group_72" data-name="Group 72">
                    <rect id="Rectangle_22" data-name="Rectangle 22" class="cls-16" width="35.719" height="3.914" transform="translate(508.936 300.893)"/>
                  </g>
                </g>
              </g>
            </g>
            <g id="Group_88" data-name="Group 88">
              <g id="Group_78" data-name="Group 78">
                <g id="Group_77" data-name="Group 77">
                  <g id="Group_76" data-name="Group 76">
                    <rect id="Rectangle_23" data-name="Rectangle 23" class="cls-9" width="6.889" height="6.889" transform="translate(551.567 297.918)"/>
                  </g>
                </g>
              </g>
              <g id="Group_81" data-name="Group 81">
                <g id="Group_80" data-name="Group 80">
                  <g id="Group_79" data-name="Group 79">
                    <rect id="Rectangle_24" data-name="Rectangle 24" class="cls-2" width="6.889" height="6.889" transform="translate(551.567 309.988)"/>
                  </g>
                </g>
              </g>
              <g id="Group_84" data-name="Group 84">
                <g id="Group_83" data-name="Group 83">
                  <g id="Group_82" data-name="Group 82">
                    <rect id="Rectangle_25" data-name="Rectangle 25" class="cls-16" width="35.719" height="3.915" transform="translate(560.354 312.962)"/>
                  </g>
                </g>
              </g>
              <g id="Group_87" data-name="Group 87">
                <g id="Group_86" data-name="Group 86">
                  <g id="Group_85" data-name="Group 85">
                    <rect id="Rectangle_26" data-name="Rectangle 26" class="cls-16" width="35.719" height="3.914" transform="translate(560.354 300.893)"/>
                  </g>
                </g>
              </g>
            </g>
            <path id="Path_35" data-name="Path 35" class="cls-17" d="M511.238,245.813,530.072,232.1l18.16,8.309,18.5-16.317,19.171-7.914"/>
          </g>
        </g>
        <g id="Group_92" data-name="Group 92">
          <g id="Group_91" data-name="Group 91">
            <path id="Path_36" data-name="Path 36" class="cls-18" d="M646.482,166a8.1,8.1,0,1,1-8.1-8.1A8.1,8.1,0,0,1,646.482,166Z"/>
            <path id="Path_37" data-name="Path 37" class="cls-3" d="M639.973,161.3c.962.233.2,2.458-.481,2.823l2.294.015a.884.884,0,0,1,.859,1.069l-.567,2.679a1.889,1.889,0,0,1-1.861,1.5l-3.229-.026.04-5.062C638.728,163.885,639.021,161.074,639.973,161.3Zm-3.7,7.417v-3.739a.661.661,0,0,0-.662-.661h-.847a.661.661,0,0,0-.662.661v3.739a.662.662,0,0,0,.662.662h.847A.661.661,0,0,0,636.271,168.721Z"/>
          </g>
        </g>
        <g id="Group_94" data-name="Group 94">
          <path id="Path_38" data-name="Path 38" class="cls-18" d="M657.628,355.841a15.5,15.5,0,1,1-15.5-15.5A15.5,15.5,0,0,1,657.628,355.841Z"/>
          <g id="Group_93" data-name="Group 93">
            <path id="Path_39" data-name="Path 39" class="cls-3" d="M646.687,349.045a4.561,4.561,0,1,1-4.561-4.561A4.56,4.56,0,0,1,646.687,349.045Z"/>
            <path id="Path_40" data-name="Path 40" class="cls-3" d="M645.346,367.2h-6.439a2.333,2.333,0,0,1-2.333-2.333v-5a5.552,5.552,0,0,1,5.552-5.552h0a5.553,5.553,0,0,1,5.553,5.552v5A2.333,2.333,0,0,1,645.346,367.2Z"/>
          </g>
        </g>
        <g id="Group_96" data-name="Group 96">
          <path id="Path_41" data-name="Path 41" class="cls-18" d="M470.026,119.686a7.916,7.916,0,1,1-7.916-7.916A7.916,7.916,0,0,1,470.026,119.686Z"/>
          <g id="Group_95" data-name="Group 95">
            <path id="Path_42" data-name="Path 42" class="cls-3" d="M464.439,116.216a2.329,2.329,0,1,1-2.329-2.33A2.328,2.328,0,0,1,464.439,116.216Z"/>
            <path id="Path_43" data-name="Path 43" class="cls-3" d="M463.755,125.486h-3.289a1.191,1.191,0,0,1-1.191-1.191v-2.556a2.835,2.835,0,0,1,2.835-2.835h0a2.834,2.834,0,0,1,2.835,2.835v2.556A1.191,1.191,0,0,1,463.755,125.486Z"/>
          </g>
        </g>
        <g id="Group_98" data-name="Group 98">
          <path id="Path_44" data-name="Path 44" class="cls-18" d="M620.25,104.279a13.431,13.431,0,1,1-13.432-13.431A13.432,13.432,0,0,1,620.25,104.279Z"/>
          <g id="Group_97" data-name="Group 97">
            <path id="Path_45" data-name="Path 45" class="cls-3" d="M610.77,98.391a3.952,3.952,0,1,1-3.952-3.952A3.951,3.951,0,0,1,610.77,98.391Z"/>
            <path id="Path_46" data-name="Path 46" class="cls-3" d="M609.608,114.12h-5.579a2.021,2.021,0,0,1-2.021-2.022v-4.336a4.81,4.81,0,0,1,4.81-4.81h0a4.81,4.81,0,0,1,4.811,4.81V112.1A2.021,2.021,0,0,1,609.608,114.12Z"/>
          </g>
        </g>
        <g id="Group_100" data-name="Group 100">
          <path id="Path_47" data-name="Path 47" class="cls-18" d="M531.913,391.148A7.917,7.917,0,1,1,524,383.232,7.916,7.916,0,0,1,531.913,391.148Z"/>
          <g id="Group_99" data-name="Group 99">
            <circle id="Ellipse_5" data-name="Ellipse 5" class="cls-3" cx="2.329" cy="2.329" r="2.329" transform="translate(521.668 385.349)"/>
            <path id="Path_48" data-name="Path 48" class="cls-3" d="M525.641,396.948h-3.289a1.191,1.191,0,0,1-1.191-1.191V393.2A2.836,2.836,0,0,1,524,390.366h0a2.836,2.836,0,0,1,2.835,2.835v2.556A1.191,1.191,0,0,1,525.641,396.948Z"/>
          </g>
        </g>
      </g>
      <g id="Group_110" data-name="Group 110">
        <g id="Group_109" data-name="Group 109">
          <path id="Path_49" data-name="Path 49" class="cls-19" d="M372.341,381.576s.262,10.9,5.782,10.9,15.705-6.593,17.246-5.963,14.532,7.418,15.935,7.175,1.073-2.181,2.712-2.423,20.044,10.155,23.69,2c2.207-4.938-8.238-6.75-8.238-6.75s12.082-13.634,15.216-24.3S372.341,381.576,372.341,381.576Z"/>
          <g id="Group_103" data-name="Group 103">
            <path id="Path_50" data-name="Path 50" class="cls-20" d="M410.648,385.429s12.96.559,22.745-8.2c7.829-7.013,13.623-18.738,15.276-23.867s2.362-15.368-.113-17.078-47.288,40.945-47.288,40.945Z"/>
            <path id="Path_51" data-name="Path 51" class="cls-20" d="M352.674,357.706s5.4-6.11,19.977-6.091c11.351.016,48.593,10.219,48.593,10.219l-16.2,17.317Z"/>
            <g id="Group_102" data-name="Group 102">
              <path id="Path_52" data-name="Path 52" class="cls-21" d="M420.428,382.392l-7.559-3.24-2.582,4.859,3.422,2.836h5.773Z"/>
              <path id="Path_53" data-name="Path 53" class="cls-22" d="M414.519,387.217a5.3,5.3,0,0,0,4.424-1.935c1.89-2.251.81-3.2,2.025-3.331s6.479,2.3,11.743,1.755,6.884-1.343,7.154.61-.422,9.212-6.765,8.943S414.519,387.217,414.519,387.217Z"/>
              <path id="Path_54" data-name="Path 54" class="cls-23" d="M413.709,386.847a5.3,5.3,0,0,0,4.424-1.935c1.889-2.251.81-3.2,2.025-3.331s6.479,2.3,11.743,1.755,6.884-1.343,7.155.611-.422,9.211-6.766,8.942S413.709,386.847,413.709,386.847Z"/>
            </g>
            <path id="Path_55" data-name="Path 55" class="cls-24" d="M372.651,360.211c8.249,5.027,42.317,16.46,42.317,16.46s1.27,8.765-6.1,11.38c0,0-41.082-11.592-50.8-16.05s-6.749-12.255-5.4-14.3S362.393,353.959,372.651,360.211Z"/>
          </g>
          <path id="Path_56" data-name="Path 56" class="cls-25" d="M403.688,299.68a4.07,4.07,0,0,1,1.789,1.851,4.628,4.628,0,0,1,.426,2.851c-.452,2.571-1.02,6.584-1.637,10.819-.995,6.8-2.127,14.191-3.147,17.146-.223.675,2.842,4.2,1.519,5.839-.03.051-.4,13.755-.446,13.8-.017.011-1.381,1.322-1.4,1.331-.525.337-2.481,1.14-3.492.7-1.112-.449-26.16,7.668-25.955,7.432,10.515-12.089,19.283-18.874,19.944-20.046,1.3-2.3.431-25.784.956-30.473a18.353,18.353,0,0,1,2.286-7.061,17.088,17.088,0,0,1,4.151-4.059C400.57,298.272,401.56,298.556,403.688,299.68Z"/>
          <path id="Path_57" data-name="Path 57" class="cls-26" d="M429.8,336.313a18.818,18.818,0,0,0-.845,10.857c1.6,7.2-.221,7.679-.221,7.679s-8.655,6.008-17.1,6.907c-7.566.8-13.951,1.294-13.814-5.125l2.428,1.934c.011-.39.021-.762.029-1.125.275-14.427-2.734-15.161-3.475-31.314-.765-16.571-4.8-18.77-1.165-23.474,5.369-6.956,19.609-10.5,30.891-7.831,8.475,2,11.267,4.245,11.2,10.517a49.334,49.334,0,0,1-.911,7.721C435.406,320.951,432.065,330.425,429.8,336.313Z"/>
          <g id="Group_104" data-name="Group 104">
            <path id="Path_58" data-name="Path 58" class="cls-21" d="M421.072,285.372c-3.217,2.144-5.291,3.883-9.446,3.883-1.567,0-.961-.627-2.427-.964.723.382-.736,1.037-.174,1.158a2.456,2.456,0,0,1,1.951,2.265l.255,4.765,1.862,3.889,3.243-2.1,4.725-3.063-.468-7.391A1.932,1.932,0,0,1,421.072,285.372Z"/>
            <path id="Path_59" data-name="Path 59" class="cls-27" d="M413.385,293.479l.317,4.434-.609,2.455-1.862-3.889-.255-4.765a2.457,2.457,0,0,0-1.951-2.265c-1.209-.259-.629-1.146-2.346-2.968a3.022,3.022,0,0,1-.294-.363c.211.125.491,1.795,4.351,2.227C413.59,288.664,413.18,290.616,413.385,293.479Z"/>
          </g>
          <path id="Path_60" data-name="Path 60" class="cls-3" d="M421,291.761a7.561,7.561,0,0,1,2.278,2.343,30.132,30.132,0,0,0-2.918,1.529c-1.241.758-7.206,4.97-7.206,4.97L411.4,297S417.632,292.7,421,291.761Z"/>
          <path id="Path_61" data-name="Path 61" class="cls-3" d="M411.4,297a4.989,4.989,0,0,0-2.728,2.272s-1.067-2.045.3-5.685A9.432,9.432,0,0,1,411,292.119Z"/>
          <g id="Group_105" data-name="Group 105">
            <path id="Path_62" data-name="Path 62" class="cls-28" d="M420.428,356.191l-40.325-.351,24.009,8.956Z"/>
            <path id="Path_63" data-name="Path 63" class="cls-29" d="M404.024,365.746l17.282-1.613.131-1.423-17.569,1.653Z"/>
          </g>
          <path id="Path_64" data-name="Path 64" class="cls-21" d="M407.312,352.88l-3.279,1.8a5.653,5.653,0,0,0-6.45.195c-3.215,2.432.663,9.306,3.046,8.617s9.333-5.838,9.333-5.838Z"/>
          <path id="Path_65" data-name="Path 65" class="cls-30" d="M362.23,365.321l-4.013,1.2,44.058.412,19.319-5.28-41.035.434Z"/>
          <path id="Path_66" data-name="Path 66" class="cls-25" d="M423.105,350.979c-6.142,1.93-12.537,11.691-12.537,11.691l-.562-.9s-3.173-1.423-4.038-4.349a25.26,25.26,0,0,1-.3-4.537s15.337-7.666,20.051-12.857c2.285-2.524,2.493-4.633,4.679-5.689-.068-.167-.128-.329-.194-.5-2.393-6.823-2.281-16.589-3.267-21.538a15.7,15.7,0,0,1,.192-7.1,13.6,13.6,0,0,1,2.021-4.323c1.478-2.079,3.5-3.673,6.1-3.067a4.932,4.932,0,0,1,2.487,1.439,5.158,5.158,0,0,1,1.366,2.827c.976,7.174,4.066,26.813,3.921,31.215a8.048,8.048,0,0,1-.347,2.119,6.619,6.619,0,0,1-.2.691C440.243,342.333,429.247,349.049,423.105,350.979Z"/>
          <g id="Group_106" data-name="Group 106">
            <path id="Path_67" data-name="Path 67" class="cls-31" d="M404.024,365.746l-41.849-3.83A2.962,2.962,0,0,1,359.5,359.3l-3.306-29.15a2.486,2.486,0,0,1,2.7-2.754l39.2,3.587a2.486,2.486,0,0,1,2.243,2.195Z"/>
          </g>
          <g id="Group_107" data-name="Group 107">
            <path id="Path_68" data-name="Path 68" class="cls-32" d="M401.7,273.233a5.757,5.757,0,0,1-.98,1.73,5.868,5.868,0,0,0-.975,3.174c.027-.071-1.795-5.046-1.273-6.265s1.6-1.527,1.871-1.13S401.7,273.233,401.7,273.233Z"/>
            <path id="Path_69" data-name="Path 69" class="cls-21" d="M422.653,281.518a18.3,18.3,0,0,1,.08,3.552,7.191,7.191,0,0,1-.148.771c-1.015,4.018-6.1,9.689-9.676,10.148a9.463,9.463,0,0,1-1.383.027c-4.975-.227-7.883-4.306-9.569-8.646-.058-.157-.114-.3-.17-.45a39.9,39.9,0,0,1-2.094-9.628c-.031-.343-.037-.537-.037-.537a7.393,7.393,0,0,1,.113-3.332c.049-.178.084-.268.084-.268s.064-.016.169-.048c1.38-.425,10.765-3.3,10.969-3.316s9.657.663,9.657.663A101.543,101.543,0,0,1,422.653,281.518Z"/>
            <path id="Path_70" data-name="Path 70" class="cls-33" d="M414.109,274.673"/>
            <path id="Path_71" data-name="Path 71" class="cls-34" d="M423.984,281.3a18.381,18.381,0,0,1,.079,3.553,2.55,2.55,0,0,1-.063.384c-.647,4.018-5.563,10.263-11.091,10.756a11.578,11.578,0,0,1-1.234.111c-5.985.243-8.065-4.268-9.718-8.73-.058-.157-.114-.3-.17-.45,0,0,2.081,3.32,3.118,3.422s-.25-1.2,2.568-2.3a13.889,13.889,0,0,1,5.784-.479c1.171.155,3.273.754,4.018.861a.826.826,0,0,0,.43-.039c.993-.511,3-3.871,3.348-6.012C421.2,281.54,423.2,281.16,423.984,281.3Z"/>
            <path id="Path_72" data-name="Path 72" class="cls-34" d="M395.624,268.27s.307,7.21,12.154,4.326,10.94,8.893,10.94,8.893,1.644-3.947,2.134-2.426-.04,5.433-.04,5.433,3.251.353,3.351-1.247c.06-.956.166-14.6-2.18-17.846s-5.145-3.093-5.145-3.093-2.965-2.5-9.951-.455-10.666-.535-10.648-.333A13.969,13.969,0,0,0,395.624,268.27Z"/>
          </g>
          <path id="Path_73" data-name="Path 73" class="cls-35" d="M418.578,278.941c-.119-.491-2.272-.4-3.8-.206s-5.6.7-6.451,1.205-.822.84-1.269.891-.453-.28-1.406-.555a17.662,17.662,0,0,0-4.828.214c-1.526.193-2.981.488-2.975.993s.23,1.377.534,1.507.3.106,1.4,2.066c.615,1.094,1.609,1.7,3.591,1.319,2.518-.483,2.776-2.562,3.012-3.435s.419-1.008.8-1.057.639.032,1.082.819.7,2.631,3.261,2.647c3.349.021,4.841-.867,5.381-2.449.73-2.144.587-2.146.849-2.347.121-.093.856-.354.88-.635A3.373,3.373,0,0,0,418.578,278.941Zm-13.03,4.835a2.672,2.672,0,0,1-2.577,2.313c-1.546.194-2.223-.376-2.986-1.781-.664-1.223-.652-2.215-.375-2.569s1.107-.37,3.021-.524,2.553-.2,2.834.395A5.473,5.473,0,0,1,405.548,283.776Zm10.991-1.55c-.392,1.549-1.2,2.316-3.317,2.574-3,.364-3.534-.474-3.925-1.495a5.473,5.473,0,0,1-.456-2.12c.123-.651.754-.759,2.647-1.084s4.421-.73,4.778-.456S416.879,280.876,416.539,282.226Z"/>
          <g id="Group_108" data-name="Group 108">
            <path id="Path_74" data-name="Path 74" class="cls-21" d="M390.914,377.52l7.658-3L401,379.46l-3.51,2.725-5.77-.183Z"/>
            <path id="Path_75" data-name="Path 75" class="cls-22" d="M396.667,382.53a5.3,5.3,0,0,1-4.36-2.075c-1.818-2.308-.708-3.219-1.918-3.392s-6.549,2.087-11.793,1.381-6.839-1.56-7.17.384.129,9.221,6.478,9.151S396.667,382.53,396.667,382.53Z"/>
            <path id="Path_76" data-name="Path 76" class="cls-23" d="M397.488,382.185a5.294,5.294,0,0,1-4.36-2.074c-1.818-2.309-.708-3.219-1.918-3.392s-6.549,2.088-11.793,1.381-6.838-1.561-7.17.383.129,9.221,6.479,9.153S397.488,382.185,397.488,382.185Z"/>
          </g>
          <path id="Path_77" data-name="Path 77" class="cls-36" d="M395.95,371.945s19.356-15.74,27.454-24.109,13.228-16.543,22.677-13.266-2.43,20.849-11.068,27.721-29.979,22.027-29.979,22.027S393.586,380.26,395.95,371.945Z"/>
        </g>
        <path id="Path_78" data-name="Path 78" class="cls-37" d="M381.567,346.566a3.406,3.406,0,1,1-3.407-3.407A3.407,3.407,0,0,1,381.567,346.566Z"/>
      </g>
      <g id="Group_116" data-name="Group 116">
        <g id="Group_115" data-name="Group 115">
          <path id="Rectangle_27" data-name="Rectangle 27" class="cls-38" d="M5.51,0H82.9a5.51,5.51,0,0,1,5.51,5.51V21.2A5.511,5.511,0,0,1,82.9,26.715H5.511A5.511,5.511,0,0,1,0,21.2V5.51A5.51,5.51,0,0,1,5.51,0Z" transform="translate(335.663 219.968)"/>
          <g id="Group_112" data-name="Group 112">
            <g id="Group_111" data-name="Group 111">
              <circle id="Ellipse_6" data-name="Ellipse 6" class="cls-3" cx="7.627" cy="7.627" r="7.627" transform="translate(339.475 238.99) rotate(-76.673)"/>
              <path id="Path_79" data-name="Path 79" class="cls-9" d="M350.153,228.9c.907.22.189,2.315-.452,2.659l2.159.013a.836.836,0,0,1,.81,1.008l-.535,2.522a1.777,1.777,0,0,1-1.753,1.409l-3.04-.024.038-4.767C348.98,231.33,349.257,228.683,350.153,228.9Zm-3.486,6.947V232.4a.662.662,0,0,0-.662-.662h-.721a.662.662,0,0,0-.662.662v3.444a.661.661,0,0,0,.662.661h.721A.661.661,0,0,0,346.667,235.846Z"/>
            </g>
            <text id="_2900" data-name="2900" class="cls-39" transform="translate(357.878 237.049)"><tspan x="0" y="0">2900</tspan></text>
          </g>
          <g id="Group_114" data-name="Group 114">
            <g id="Group_113" data-name="Group 113">
              <path id="Path_80" data-name="Path 80" class="cls-3" d="M399.722,233.326a7.627,7.627,0,1,1-7.628-7.628A7.628,7.628,0,0,1,399.722,233.326Z"/>
              <path id="Path_81" data-name="Path 81" class="cls-2" d="M396.7,232c-.005,2.843-4.609,5.149-4.609,5.149s-4.593-2.306-4.609-5.149c-.019-3.63,4.736-2.683,4.778-1.053C392.221,229.318,396.708,228.6,396.7,232Z"/>
            </g>
            <text id="_999" data-name="999" class="cls-39" transform="translate(401.317 237.049)"><tspan x="0" y="0">999</tspan></text>
          </g>
        </g>
        <path id="Path_82" data-name="Path 82" class="cls-38" d="M398.273,243.275l5.2,11.006,4.888-10.3Z"/>
      </g>
      <g id="Group_122" data-name="Group 122">
        <g id="Group_121" data-name="Group 121">
          <path id="Rectangle_28" data-name="Rectangle 28" class="cls-38" d="M5.511,0H82.9a5.511,5.511,0,0,1,5.511,5.511V21.2a5.51,5.51,0,0,1-5.51,5.51H5.511A5.511,5.511,0,0,1,0,21.2V5.511A5.511,5.511,0,0,1,5.511,0Z" transform="translate(379.945 139.29)"/>
          <g id="Group_118" data-name="Group 118">
            <g id="Group_117" data-name="Group 117">
              <path id="Path_83" data-name="Path 83" class="cls-3" d="M400.565,152.647a7.627,7.627,0,1,1-7.627-7.627A7.627,7.627,0,0,1,400.565,152.647Z"/>
              <path id="Path_84" data-name="Path 84" class="cls-9" d="M394.435,148.221c.908.219.19,2.314-.452,2.658l2.161.014a.834.834,0,0,1,.809,1.007l-.534,2.522a1.78,1.78,0,0,1-1.754,1.41l-3.04-.025.038-4.766C393.264,150.651,393.54,148,394.435,148.221Zm-3.485,6.946v-3.443a.662.662,0,0,0-.662-.663h-.721a.662.662,0,0,0-.662.662v3.444a.662.662,0,0,0,.662.662h.721A.662.662,0,0,0,390.95,155.167Z"/>
            </g>
            <text id="_1069_" data-name="1069	" class="cls-39" transform="translate(402.163 156.371)"><tspan x="0" y="0">1069	</tspan></text>
          </g>
          <g id="Group_120" data-name="Group 120">
            <g id="Group_119" data-name="Group 119">
              <path id="Path_85" data-name="Path 85" class="cls-3" d="M444.005,152.647a7.628,7.628,0,1,1-7.628-7.627A7.628,7.628,0,0,1,444.005,152.647Z"/>
              <path id="Path_86" data-name="Path 86" class="cls-2" d="M440.986,151.322c-.005,2.844-4.609,5.149-4.609,5.149s-4.593-2.3-4.608-5.149c-.02-3.631,4.735-2.683,4.777-1.052C436.5,148.639,440.991,147.921,440.986,151.322Z"/>
            </g>
            <text id="_680" data-name="680" class="cls-39" transform="translate(445.6 156.371)"><tspan x="0" y="0">680</tspan></text>
          </g>
        </g>
        <path id="Path_87" data-name="Path 87" class="cls-38" d="M448.157,163.55l8.551,8.663v-11Z"/>
      </g>
      <g id="Group_123" data-name="Group 123">
        <path id="Path_88" data-name="Path 88" class="cls-40" d="M480.185,371.565a34.681,34.681,0,0,1,.766,6.768c-.381,2.082,0,2.694,0,2.694l7.9-.674s-3.491-1.713-3.246-9.86S480.185,371.565,480.185,371.565Z"/>
        <path id="Path_89" data-name="Path 89" class="cls-24" d="M480.853,378.964a12.359,12.359,0,0,0,6.827.313,32.15,32.15,0,0,0,10.429,3.028c3.63.46,2.987,3.445-3.215,3.032a77.451,77.451,0,0,0-11.906.009c-1.379.137-3.584.322-3.676-.643S479.732,378.645,480.853,378.964Z"/>
        <path id="Path_90" data-name="Path 90" class="cls-40" d="M455.942,371.565a34.767,34.767,0,0,1,.766,6.768c-.381,2.082,0,2.694,0,2.694l7.9-.674s-3.491-1.713-3.246-9.86S455.942,371.565,455.942,371.565Z"/>
        <path id="Path_91" data-name="Path 91" class="cls-36" d="M456.609,378.964a12.36,12.36,0,0,0,6.827.313,32.162,32.162,0,0,0,10.43,3.028c3.629.46,2.986,3.445-3.216,3.032a77.44,77.44,0,0,0-11.9.009c-1.379.137-3.584.322-3.676-.643S455.489,378.645,456.609,378.964Z"/>
        <path id="Path_92" data-name="Path 92" class="cls-24" d="M483.247,257.944s5.084,53.246,5.386,60.177a99.686,99.686,0,0,1,0,13.563c-.3,4.218,2.3,39.769,2.3,39.769s-11.83,3.088-14.844.342c0,0,.492-38.761-1.015-45.392s-7.4-40.229-7.4-40.229l6.793-34.359Z"/>
        <path id="Path_93" data-name="Path 93" class="cls-41" d="M455.781,183.853s.5-9.268,4.318-11.754,14.04-3.391,17.18.9,6.494,22.944-8.84,25.346l-7.948,36.678s-20.682-2.115-22.265-13.191,7.835-16.229,7.835-16.229-4.52-9.308.227-15.87S455.781,183.853,455.781,183.853Z"/>
        <path id="Path_94" data-name="Path 94" class="cls-40" d="M485.631,215.741s18.7,2.678,23.759,2.438c3.962.24,9.675-23.308,10.249-24.749,3.16-2.154,4.4-3.822,4.356-5.444s-4.082-2.993-4.47-2.177c.668-2.155.817-2.829,1-3.568.375-1.53-.7-2.7-2.247,3.076-1.526,5.7-1.379,4.758-1.75,6.763-2.495,5.2-8.931,17.326-9.369,19.162-8.343-.214-22.491-3.742-22.491-3.742Z"/>
        <path id="Path_95" data-name="Path 95" class="cls-36" d="M457.59,322.039c1.205-9.946-1-50.257-.914-58.8s24.121-4.195,24.121-4.195-7.535,50.03-8.44,57.264-2.109,9.342-2.561,16.275-3.768,39.481-3.768,39.481-13.226,2.221-14.225-.281C449.713,358.98,457.59,322.039,457.59,322.039Z"/>
        <path id="Path_96" data-name="Path 96" class="cls-3" d="M475.975,202.69l10.849,2.917s-1.205,9.138,0,11.851H479.29s-1.309,3.918-2.011,5.726,5.627,32.2,6.531,37.927c0,0-15.973-2.966-28.631,2.76,0,0,1.205-12.056,5.424-20.494s-12.688-28.1-12.688-28.1,5.161-15.823,14.195-16.8C469.326,197.688,469.283,200.89,475.975,202.69Z"/>
        <path id="Path_97" data-name="Path 97" class="cls-40" d="M475.371,176.23s3.315,8.979,1.206,13.2-7.233,3.616-7.233,3.616v9.645a2.388,2.388,0,0,1-1.432.552c-1.582.09-5.8-2.662-5.8-2.662v-22.3Z"/>
        <path id="Path_98" data-name="Path 98" class="cls-40" d="M444.922,214.686s-16.039,18.218-15.135,20.478,18.761,12.206,20.344,13.563,6.446,6.787,6.613,6.064,3.106-2.448,3.332-4.256a4.708,4.708,0,0,0-1.356-3.391l-6.782-.9s-12.206-10.172-12.658-11.528,13.8-15.371,13.8-15.371Z"/>
        <path id="Path_99" data-name="Path 99" class="cls-3" d="M443.442,213.841s9.3-13.122,15.07-12.658,5.424,8.886,0,14.768-7.234,8.137-7.234,8.137S444.647,220.773,443.442,213.841Z"/>
        <path id="Path_100" data-name="Path 100" class="cls-41" d="M475.793,174.913s-2.154,10.3-7.127,13.008-1.217,9.382-5.957,14.361c-2.536,2.664-7.355-.3-7.355-.3L460.1,176.23Z"/>
      </g>
      <g id="Group_124" data-name="Group 124" class="cls-42">
        <path id="Path_101" data-name="Path 101" class="cls-43" d="M657.373,199.593a3.588,3.588,0,1,1-3.588-3.588A3.587,3.587,0,0,1,657.373,199.593Z"/>
        <path id="Path_102" data-name="Path 102" class="cls-43" d="M607.209,192.8a3.588,3.588,0,1,1-3.588-3.588A3.588,3.588,0,0,1,607.209,192.8Z"/>
        <path id="Path_103" data-name="Path 103" class="cls-43" d="M363.036,186.692a3.588,3.588,0,1,1-3.588-3.587A3.588,3.588,0,0,1,363.036,186.692Z"/>
        <path id="Path_104" data-name="Path 104" class="cls-43" d="M315.519,151.061a3.588,3.588,0,1,1-3.587-3.587A3.587,3.587,0,0,1,315.519,151.061Z"/>
        <path id="Path_105" data-name="Path 105" class="cls-43" d="M623.838,378.16a3.588,3.588,0,1,1-3.588-3.587A3.587,3.587,0,0,1,623.838,378.16Z"/>
        <path id="Path_106" data-name="Path 106" class="cls-43" d="M268.257,371.928a3.587,3.587,0,1,1-3.587-3.588A3.588,3.588,0,0,1,268.257,371.928Z"/>
        <circle id="Ellipse_7" data-name="Ellipse 7" class="cls-43" cx="3.588" cy="3.588" r="3.588" transform="translate(433.247 266.202)"/>
        <path id="Path_107" data-name="Path 107" class="cls-43" d="M276.328,227.657a3.588,3.588,0,1,1-3.588-3.587A3.587,3.587,0,0,1,276.328,227.657Z"/>
        <circle id="Ellipse_8" data-name="Ellipse 8" class="cls-43" cx="3.588" cy="3.588" r="3.588" transform="translate(397.672 108.123)"/>
        <circle id="Ellipse_9" data-name="Ellipse 9" class="cls-43" cx="3.588" cy="3.588" r="3.588" transform="translate(647.595 107.572)"/>
        <path id="Path_108" data-name="Path 108" class="cls-3" d="M541.793,120.517h-2.647V117.87a.773.773,0,1,0-1.547,0v2.647h-2.648a.774.774,0,0,0,0,1.548H537.6v2.647a.773.773,0,1,0,1.547,0v-2.647h2.647a.774.774,0,0,0,0-1.548Z"/>
        <path id="Path_109" data-name="Path 109" class="cls-3" d="M447.426,98.679h-2.648V96.031a.774.774,0,0,0-1.548,0v2.648h-2.646a.774.774,0,1,0,0,1.548h2.646v2.646a.774.774,0,1,0,1.548,0v-2.646h2.648a.774.774,0,0,0,0-1.548Z"/>
        <path id="Path_110" data-name="Path 110" class="cls-3" d="M352.076,124.712h-2.647v-2.647a.774.774,0,1,0-1.548,0v2.647h-2.647a.774.774,0,1,0,0,1.548h2.647v2.647a.774.774,0,1,0,1.548,0V126.26h2.647a.774.774,0,1,0,0-1.548Z"/>
        <path id="Path_111" data-name="Path 111" class="cls-3" d="M399.9,200.4h-2.646v-2.648a.774.774,0,0,0-1.548,0V200.4h-2.647a.774.774,0,0,0,0,1.548H395.7v2.647a.774.774,0,1,0,1.548,0v-2.647H399.9a.774.774,0,1,0,0-1.548Z"/>
        <path id="Path_112" data-name="Path 112" class="cls-3" d="M354.751,323.8H352.1v-2.648a.773.773,0,1,0-1.547,0V323.8H347.91a.774.774,0,1,0,0,1.548h2.647v2.646a.774.774,0,1,0,1.547,0v-2.646h2.647a.774.774,0,0,0,0-1.548Z"/>
        <path id="Path_113" data-name="Path 113" class="cls-3" d="M654.6,323.8h-2.646v-2.648a.774.774,0,1,0-1.548,0V323.8h-2.647a.774.774,0,1,0,0,1.548h2.647v2.646a.774.774,0,1,0,1.548,0v-2.646H654.6a.774.774,0,1,0,0-1.548Z"/>
        <path id="Path_114" data-name="Path 114" class="cls-3" d="M373.268,280.34h-2.647v-2.648a.774.774,0,0,0-1.548,0v2.648h-2.647a.774.774,0,0,0,0,1.548h2.647v2.647a.774.774,0,0,0,1.548,0v-2.647h2.647a.774.774,0,0,0,0-1.548Z"/>
        <path id="Path_115" data-name="Path 115" class="cls-3" d="M572.282,373.306h-2.647v-2.648a.774.774,0,0,0-1.548,0v2.648H565.44a.773.773,0,1,0,0,1.547h2.647V377.5a.774.774,0,0,0,1.548,0v-2.647h2.647a.773.773,0,1,0,0-1.547Z"/>
        <path id="Path_116" data-name="Path 116" class="cls-3" d="M635.327,257.171h-2.646v-2.648a.774.774,0,0,0-1.548,0v2.648h-2.648a.774.774,0,0,0,0,1.548h2.648v2.647a.774.774,0,1,0,1.548,0v-2.647h2.646a.774.774,0,1,0,0-1.548Z"/>
      </g>
    </g>
  </g>
</svg>
